<svg width="338" height="151" viewBox="0 0 338 151" fill="none" xmlns="http://www.w3.org/2000/svg">
<path d="M0 145V12.5054H81.9536C105.091 12.5054 124.52 22.7516 124.52 46.2473C124.52 61.97 116.042 71.6863 103.502 76.2795C118.515 80.166 128.582 89.8822 128.582 108.431C128.582 132.634 110.214 145 86.016 145H0ZM32.4989 40.7709V66.2099H79.4809C86.7225 66.2099 92.0212 60.9101 92.0212 52.9604C92.0212 45.0107 86.7225 40.7709 79.4809 40.7709H32.4989ZM32.4989 90.0589V116.734H81.6004C89.9017 116.734 95.5537 112.848 95.5537 103.485C95.5537 94.1221 89.9017 90.0589 81.6004 90.0589H32.4989Z" fill="#0A1026"/>
<path d="M209.418 145V12.5054H291.372C314.509 12.5054 333.938 22.7516 333.938 46.2473C333.938 61.97 325.46 71.6863 312.92 76.2795C327.933 80.166 338 89.8822 338 108.431C338 132.634 319.631 145 295.434 145H209.418ZM241.917 40.7709V66.2099H288.899C296.14 66.2099 301.439 60.9101 301.439 52.9604C301.439 45.0107 296.14 40.7709 288.899 40.7709H241.917ZM241.917 90.0589V116.734H291.018C299.32 116.734 304.972 112.848 304.972 103.485C304.972 94.1221 299.32 90.0589 291.018 90.0589H241.917Z" fill="#0A1026"/>
<path d="M229.964 96.3893L236.764 122.358L129.112 150.506L123.843 130.337C113.746 91.7078 191.078 68.3887 182.953 37.2967C180.804 29.082 169.441 26.7854 158.49 29.6414C146.686 32.733 135.412 41.8898 136.972 56.2581L105.68 61.5285C101.735 33.8812 118.132 12.0638 153.162 2.90695C183.571 -5.04273 207.327 3.3486 213.656 27.6393C226.196 75.6612 158.255 100.011 158.225 115.174L229.994 96.4187L229.964 96.3893Z" fill="#51D0DE"/>
</svg>
