<?xml version="1.0" standalone="no"?>
  <!DOCTYPE svg PUBLIC "-//W3C//DTD SVG 1.1//EN" "http://www.w3.org/Graphics/SVG/1.1/DTD/svg11.dtd" >
  <svg>
  <metadata>
  Created by font-carrier
  </metadata>
  <defs>
  <font id="AeonikProTRIAL-Regular" horiz-adv-x="1026" vert-adv-y="1026" >
    <font-face
      
      font-family="Aeonik Pro TRIAL"
      
      font-weight="400"
      
      font-stretch="normal"
      
      units-per-em="1000"
      
      ascent="930"
      
      descent="-210"
      
    />
      <missing-glyph />

      

      
      <glyph glyph-name="uni41" unicode="&#x41;" d="M101 0L175 189L480 189L554 0L647 0L381 700L278 700L11 0ZM327 605L454 268L201 268Z"  horiz-adv-x="658" vert-adv-y="1000"  />

      
      <glyph glyph-name="uni42" unicode="&#x42;" d="M68 0L323 0C489 0 577 76 577 200C577 301 512 349 438 363C504 386 548 435 548 515C548 628 465 700 316 700L68 700ZM320 621C411 621 461 579 461 509C461 438 410 396 320 396L155 396L155 621ZM323 318C427 318 488 275 488 196C488 124 431 79 323 79L155 79L155 318Z"  horiz-adv-x="618" vert-adv-y="1000"  />

      
      <glyph glyph-name="uni43" unicode="&#x43;" d="M369-6C527-6 643 84 669 229L577 229C551 131 476 74 368 74C221 74 131 189 131 350C131 512 225 626 372 626C477 626 551 568 578 471L670 471C644 616 531 706 376 706C173 706 42 562 42 350C42 136 168-6 369-6Z"  horiz-adv-x="706" vert-adv-y="1000"  />

      
      <glyph glyph-name="uni44" unicode="&#x44;" d="M292 0C511 0 644 141 644 350C644 560 511 700 292 700L68 700L68 0ZM155 620L292 620C462 620 555 514 555 350C555 187 462 80 292 80L155 80Z"  horiz-adv-x="686" vert-adv-y="1000"  />

      
      <glyph glyph-name="uni45" unicode="&#x45;" d="M68 0L527 0L527 80L155 80L155 316L454 316L454 396L155 396L155 620L514 620L514 700L68 700Z"  horiz-adv-x="557" vert-adv-y="1000"  />

      
      <glyph glyph-name="uni46" unicode="&#x46;" d="M68 0L155 0L155 306L443 306L443 386L155 386L155 620L503 620L503 700L68 700Z"  horiz-adv-x="528" vert-adv-y="1000"  />

      
      <glyph glyph-name="uni47" unicode="&#x47;" d="M371-6C491-6 566 51 598 102L604 0L679 0L679 379L384 379L384 299L594 299L594 275C594 151 501 74 372 74C227 74 131 188 131 350C131 512 227 626 374 626C480 626 555 569 579 472L672 472C648 616 531 706 376 706C173 706 42 562 42 350C42 138 177-6 371-6Z"  horiz-adv-x="747" vert-adv-y="1000"  />

      
      <glyph glyph-name="uni48" unicode="&#x48;" d="M68 0L155 0L155 316L517 316L517 0L604 0L604 700L517 700L517 396L155 396L155 700L68 700Z"  horiz-adv-x="672" vert-adv-y="1000"  />

      
      <glyph glyph-name="uni49" unicode="&#x49;" d="M68 0L155 0L155 700L68 700Z"  horiz-adv-x="223" vert-adv-y="1000"  />

      
      <glyph glyph-name="uni4a" unicode="&#x4a;" d="M195 172C195 109 169 80 106 80L26 80L26 0L117 0C225 0 282 57 282 165L282 700L195 700Z"  horiz-adv-x="350" vert-adv-y="1000"  />

      
      <glyph glyph-name="uni4b" unicode="&#x4b;" d="M68 0L155 0L155 182L294 339L530 0L634 0L358 405L614 700L508 700L155 303L155 700L68 700Z"  horiz-adv-x="638" vert-adv-y="1000"  />

      
      <glyph glyph-name="uni4c" unicode="&#x4c;" d="M474 0L474 80L155 80L155 700L68 700L68 0Z"  horiz-adv-x="494" vert-adv-y="1000"  />

      
      <glyph glyph-name="uni4d" unicode="&#x4d;" d="M68 0L153 0L153 552L385 0L462 0L694 552L694 0L779 0L779 700L671 700L426 119L178 700L68 700Z"  horiz-adv-x="847" vert-adv-y="1000"  />

      
      <glyph glyph-name="uni4e" unicode="&#x4e;" d="M153 0L153 540L529 0L609 0L609 700L524 700L524 160L148 700L68 700L68 0Z"  horiz-adv-x="677" vert-adv-y="1000"  />

      
      <glyph glyph-name="uni4f" unicode="&#x4f;" d="M710 350C710 556 573 706 376 706C179 706 42 556 42 350C42 144 179-6 376-6C573-6 710 144 710 350ZM131 350C131 511 230 626 376 626C522 626 621 511 621 350C621 189 522 74 376 74C230 74 131 189 131 350Z"  horiz-adv-x="752" vert-adv-y="1000"  />

      
      <glyph glyph-name="uni50" unicode="&#x50;" d="M68 0L155 0L155 269L337 269C477 269 569 354 569 485C569 616 477 700 337 700L68 700ZM330 620C422 620 480 568 480 485C480 402 421 349 329 349L155 349L155 620Z"  horiz-adv-x="594" vert-adv-y="1000"  />

      
      <glyph glyph-name="uni51" unicode="&#x51;" d="M699 80C669 80 652 89 633 114C682 176 710 257 710 350C710 556 573 706 376 706C179 706 42 556 42 350C42 144 179-6 376-6C453-6 522 17 576 58L583 48C608 14 636 0 689 0L753 0L753 80ZM376 74C230 74 131 189 131 350C131 511 230 626 376 626C522 626 621 511 621 350C621 288 606 232 579 188L557 218C532 252 507 267 460 267L387 267L387 187L446 187C471 187 488 177 507 152L526 126C486 93 435 74 376 74Z"  horiz-adv-x="756" vert-adv-y="1000"  />

      
      <glyph glyph-name="uni52" unicode="&#x52;" d="M68 0L155 0L155 269L331 269L479 0L577 0L420 286C510 311 569 387 569 485C569 616 476 700 336 700L68 700ZM330 620C421 620 480 567 480 485C480 403 421 349 329 349L155 349L155 620Z"  horiz-adv-x="611" vert-adv-y="1000"  />

      
      <glyph glyph-name="uni53" unicode="&#x53;" d="M40 229C45 91 145-6 316-6C463-6 565 79 565 200C565 336 448 374 334 393C229 411 144 428 144 512C144 587 205 627 296 627C391 627 456 574 466 493L556 493C548 619 452 706 296 706C154 706 57 626 57 507C57 371 173 334 286 315C392 297 478 279 478 192C478 116 411 73 317 73C210 73 137 135 130 229Z"  horiz-adv-x="607" vert-adv-y="1000"  />

      
      <glyph glyph-name="uni54" unicode="&#x54;" d="M20 620L247 620L247 0L334 0L334 620L561 620L561 700L20 700Z"  horiz-adv-x="581" vert-adv-y="1000"  />

      
      <glyph glyph-name="uni55" unicode="&#x55;" d="M64 299C64 99 155-6 330-6C505-6 598 99 598 299L598 700L511 700L511 294C511 149 453 74 330 74C209 74 151 149 151 294L151 700L64 700Z"  horiz-adv-x="662" vert-adv-y="1000"  />

      
      <glyph glyph-name="uni56" unicode="&#x56;" d="M261 0L366 0L618 700L528 700L315 103L101 700L9 700Z"  horiz-adv-x="627" vert-adv-y="1000"  />

      
      <glyph glyph-name="uni57" unicode="&#x57;" d="M220 0L324 0L483 555L643 0L747 0L952 700L862 700L697 112L531 700L443 700L271 112L107 700L16 700Z"  horiz-adv-x="968" vert-adv-y="1000"  />

      
      <glyph glyph-name="uni58" unicode="&#x58;" d="M15 0L116 0L304 293L494 0L597 0L361 365L582 700L482 700L307 429L132 700L30 700L251 359Z"  horiz-adv-x="612" vert-adv-y="1000"  />

      
      <glyph glyph-name="uni59" unicode="&#x59;" d="M273 259L273 0L360 0L360 259L624 700L526 700L317 353L111 700L9 700Z"  horiz-adv-x="633" vert-adv-y="1000"  />

      
      <glyph glyph-name="uni5a" unicode="&#x5a;" d="M38 620L443 620L25 63L25 0L573 0L573 80L142 80L560 637L560 700L38 700Z"  horiz-adv-x="598" vert-adv-y="1000"  />

      
      <glyph glyph-name="uni61" unicode="&#x61;" d="M507 75C484 75 474 82 474 109L474 332C474 451 399 516 269 516C146 516 65 457 53 357L135 357C145 409 193 443 265 443C345 443 392 403 392 337L392 302L242 302C108 302 37 245 37 143C37 50 113-6 225-6C313-6 364 33 396 79C397 29 420 0 488 0L533 0L533 75ZM392 208C392 123 333 64 231 64C163 64 120 98 120 148C120 206 161 233 234 233L392 233Z"  horiz-adv-x="540" vert-adv-y="1000"  />

      
      <glyph glyph-name="uni62" unicode="&#x62;" d="M313 516C227 516 172 475 138 428L138 700L56 700L56 0L127 0L138 78C169 29 227-6 313-6C454-6 558 99 558 255C558 421 454 516 313 516ZM305 67C205 67 137 145 137 257C137 366 205 443 305 443C406 443 474 366 474 255C474 144 406 67 305 67Z"  horiz-adv-x="596" vert-adv-y="1000"  />

      
      <glyph glyph-name="uni63" unicode="&#x63;" d="M285-6C409-6 492 64 512 174L425 174C409 109 359 67 286 67C188 67 122 143 122 254C122 365 188 443 286 443C361 443 411 402 426 334L512 334C491 446 412 516 287 516C139 516 38 410 38 254C38 95 136-6 285-6Z"  horiz-adv-x="546" vert-adv-y="1000"  />

      
      <glyph glyph-name="uni64" unicode="&#x64;" d="M458 432C427 481 369 516 283 516C142 516 38 411 38 255C38 89 142-6 283-6C369-6 424 35 458 82L469 0L540 0L540 700L458 700ZM291 67C190 67 122 144 122 255C122 366 190 443 291 443C391 443 459 365 459 253C459 144 391 67 291 67Z"  horiz-adv-x="596" vert-adv-y="1000"  />

      
      <glyph glyph-name="uni65" unicode="&#x65;" d="M291-6C409-6 493 69 513 171L430 171C413 105 357 67 285 67C188 67 127 135 124 232L124 239L520 239C521 251 522 263 522 274C518 425 424 516 280 516C136 516 38 410 38 255C38 99 138-6 291-6ZM129 307C137 390 206 444 281 444C366 444 426 395 434 307Z"  horiz-adv-x="560" vert-adv-y="1000"  />

      
      <glyph glyph-name="uni66" unicode="&#x66;" d="M2 435L94 435L94 0L176 0L176 435L320 435L320 510L176 510L176 569C176 608 191 625 232 625L320 625L320 700L227 700C132 700 94 657 94 567L94 510L2 510Z"  horiz-adv-x="323" vert-adv-y="1000"  />

      
      <glyph glyph-name="uni67" unicode="&#x67;" d="M458 422C426 479 369 516 283 516C142 516 38 411 38 255C38 89 142-6 283-6C369-6 424 30 458 88L458 28C458-83 400-133 293-133C208-133 151-97 137-33L53-33C66-145 157-206 287-206C462-206 540-122 540 25L540 510L469 510ZM291 67C190 67 122 144 122 255C122 366 190 443 291 443C391 443 459 365 459 253C459 144 391 67 291 67Z"  horiz-adv-x="596" vert-adv-y="1000"  />

      
      <glyph glyph-name="uni68" unicode="&#x68;" d="M306 516C220 516 168 474 138 426L138 700L56 700L56 0L138 0L138 255C138 370 197 441 292 441C380 441 431 385 431 279L431 0L513 0L513 284C513 453 420 516 306 516Z"  horiz-adv-x="562" vert-adv-y="1000"  />

      
      <glyph glyph-name="uni69" unicode="&#x69;" d="M98 596C128 596 151 618 151 649C151 680 128 702 98 702C68 702 45 680 45 649C45 618 68 596 98 596ZM56 0L138 0L138 510L56 510Z"  horiz-adv-x="194" vert-adv-y="1000"  />

      
      <glyph glyph-name="uni6a" unicode="&#x6a;" d="M103 596C133 596 156 618 156 649C156 680 133 702 103 702C73 702 50 680 50 649C50 618 73 596 103 596ZM-58-200L11-200C106-200 144-157 144-67L144 510L62 510L62-69C62-108 47-125 6-125L-58-125Z"  horiz-adv-x="200" vert-adv-y="1000"  />

      
      <glyph glyph-name="uni6b" unicode="&#x6b;" d="M56 0L138 0L138 134L241 240L410 0L509 0L296 299L495 510L394 510L138 239L138 700L56 700Z"  horiz-adv-x="511" vert-adv-y="1000"  />

      
      <glyph glyph-name="uni6c" unicode="&#x6c;" d="M56 0L138 0L138 700L56 700Z"  horiz-adv-x="194" vert-adv-y="1000"  />

      
      <glyph glyph-name="uni6d" unicode="&#x6d;" d="M625 516C534 516 479 474 448 419C419 484 358 516 287 516C208 516 165 477 138 440L127 510L56 510L56 0L138 0L138 269C138 371 189 441 273 441C351 441 396 389 396 289L396 0L478 0L478 273C478 377 530 441 615 441C692 441 736 389 736 289L736 0L818 0L818 294C818 455 731 516 625 516Z"  horiz-adv-x="867" vert-adv-y="1000"  />

      
      <glyph glyph-name="uni6e" unicode="&#x6e;" d="M306 516C220 516 168 480 138 441L127 510L56 510L56 0L138 0L138 255C138 370 196 441 292 441C381 441 430 385 430 279L430 0L512 0L512 284C512 453 421 516 306 516Z"  horiz-adv-x="561" vert-adv-y="1000"  />

      
      <glyph glyph-name="uni6f" unicode="&#x6f;" d="M291-6C440-6 544 100 544 255C544 410 440 516 291 516C142 516 38 410 38 255C38 100 142-6 291-6ZM291 67C190 67 122 146 122 255C122 364 190 443 291 443C392 443 460 364 460 255C460 146 392 67 291 67Z"  horiz-adv-x="582" vert-adv-y="1000"  />

      
      <glyph glyph-name="uni70" unicode="&#x70;" d="M313 516C227 516 172 475 138 428L127 510L56 510L56-200L138-200L138 78C169 29 227-6 313-6C454-6 558 99 558 255C558 421 454 516 313 516ZM305 67C205 67 137 145 137 257C137 366 205 443 305 443C406 443 474 366 474 255C474 144 406 67 305 67Z"  horiz-adv-x="596" vert-adv-y="1000"  />

      
      <glyph glyph-name="uni71" unicode="&#x71;" d="M458 432C427 481 369 516 283 516C142 516 38 411 38 255C38 89 142-6 283-6C369-6 424 35 458 82L458-200L540-200L540 510L469 510ZM291 67C190 67 122 144 122 255C122 366 190 443 291 443C391 443 459 365 459 253C459 144 391 67 291 67Z"  horiz-adv-x="596" vert-adv-y="1000"  />

      
      <glyph glyph-name="uni72" unicode="&#x72;" d="M292 510C201 510 162 472 138 433L127 510L56 510L56 0L138 0L138 260C138 341 167 430 274 430L315 430L315 510Z"  horiz-adv-x="330" vert-adv-y="1000"  />

      
      <glyph glyph-name="uni73" unicode="&#x73;" d="M35 168C37 56 128-6 260-6C373-6 464 53 464 148C464 261 371 283 255 297C181 306 127 313 127 369C127 416 175 446 246 446C316 446 364 407 370 355L454 355C446 461 362 515 246 516C131 517 46 456 46 363C46 257 137 234 251 220C327 211 383 206 383 142C383 95 332 64 260 64C175 64 122 108 119 168Z"  horiz-adv-x="499" vert-adv-y="1000"  />

      
      <glyph glyph-name="uni74" unicode="&#x74;" d="M94 133C94 43 129 0 227 0L316 0L316 75L235 75C191 75 176 91 176 134L176 435L308 435L308 510L176 510L176 653L94 653L94 510L2 510L2 435L94 435Z"  horiz-adv-x="331" vert-adv-y="1000"  />

      
      <glyph glyph-name="uni75" unicode="&#x75;" d="M413 255C413 140 357 69 264 69C179 69 131 125 131 231L131 510L49 510L49 226C49 57 138-6 250-6C334-6 383 30 413 68L424 0L495 0L495 510L413 510Z"  horiz-adv-x="551" vert-adv-y="1000"  />

      
      <glyph glyph-name="uni76" unicode="&#x76;" d="M196 0L295 0L486 510L400 510L247 93L93 510L5 510Z"  horiz-adv-x="491" vert-adv-y="1000"  />

      
      <glyph glyph-name="uni77" unicode="&#x77;" d="M173 0L263 0L391 379L514 0L604 0L774 510L691 510L558 95L431 510L355 510L221 95L94 510L8 510Z"  horiz-adv-x="782" vert-adv-y="1000"  />

      
      <glyph glyph-name="uni78" unicode="&#x78;" d="M2 0L95 0L244 205L393 0L491 0L296 262L478 510L385 510L248 321L113 510L15 510L196 262Z"  horiz-adv-x="493" vert-adv-y="1000"  />

      
      <glyph glyph-name="uni79" unicode="&#x79;" d="M204-3L179-65C160-113 152-125 105-125L32-125L32-200L130-200C202-200 221-168 253-86L488 510L401 510L249 103L92 510L5 510Z"  horiz-adv-x="493" vert-adv-y="1000"  />

      
      <glyph glyph-name="uni7a" unicode="&#x7a;" d="M35 435L331 435L22 62L22 0L454 0L454 75L131 75L441 448L441 510L35 510Z"  horiz-adv-x="476" vert-adv-y="1000"  />

      
      <glyph glyph-name="uni0410" unicode="&#x0410;" d="M101 0L175 189L480 189L554 0L647 0L381 700L278 700L11 0ZM327 605L454 268L201 268Z"  horiz-adv-x="658" vert-adv-y="1000"  />

      
      <glyph glyph-name="uni0411" unicode="&#x0411;" d="M343 0C477 0 567 77 567 208C567 346 476 414 342 414L155 414L155 620L499 620L499 700L68 700L68 0ZM155 334L334 334C422 334 478 285 478 207C478 129 423 80 335 80L155 80Z"  horiz-adv-x="598" vert-adv-y="1000"  />

      
      <glyph glyph-name="uni0412" unicode="&#x0412;" d="M68 0L323 0C489 0 577 76 577 200C577 301 512 349 438 363C504 386 548 435 548 515C548 628 465 700 316 700L68 700ZM320 621C411 621 461 579 461 509C461 438 410 396 320 396L155 396L155 621ZM323 318C427 318 488 275 488 196C488 124 431 79 323 79L155 79L155 318Z"  horiz-adv-x="618" vert-adv-y="1000"  />

      
      <glyph glyph-name="uni0413" unicode="&#x0413;" d="M155 0L155 620L478 620L478 700L68 700L68 0Z"  horiz-adv-x="498" vert-adv-y="1000"  />

      
      <glyph glyph-name="uni0414" unicode="&#x0414;" d="M640 700L157 700L157 392C157 187 130 122 83 80L17 80L17-143L104-143L104 0L639 0L639-143L726-143L726 80L640 80ZM184 80C222 136 239 218 239 381L239 626L553 626L553 80Z"  horiz-adv-x="747" vert-adv-y="1000"  />

      
      <glyph glyph-name="uni0415" unicode="&#x0415;" d="M68 0L527 0L527 80L155 80L155 316L454 316L454 396L155 396L155 620L514 620L514 700L68 700Z"  horiz-adv-x="557" vert-adv-y="1000"  />

      
      <glyph glyph-name="uni0401" unicode="&#x0401;" d="M151 831C151 802 173 780 203 780C234 780 256 802 256 831C256 861 234 883 203 883C173 883 151 861 151 831ZM332 831C332 802 356 780 385 780C415 780 437 802 437 831C437 861 415 883 385 883C356 883 332 861 332 831ZM68 0L527 0L527 80L155 80L155 316L454 316L454 396L155 396L155 620L514 620L514 700L68 700Z"  horiz-adv-x="557" vert-adv-y="1000"  />

      
      <glyph glyph-name="uni0416" unicode="&#x0416;" d="M120 0L343 315L450 315L450 0L537 0L537 315L644 315L866 0L971 0L717 360L956 700L857 700L641 395L537 395L537 700L450 700L450 395L346 395L130 700L31 700L270 360L15 0Z"  horiz-adv-x="986" vert-adv-y="1000"  />

      
      <glyph glyph-name="uni0417" unicode="&#x0417;" d="M295-6C453-6 556 75 556 194C556 301 490 346 424 362C492 380 538 429 538 521C538 631 449 706 298 706C152 706 50 621 45 498L134 498C139 578 201 626 299 626C388 626 449 587 449 513C449 436 402 393 297 393L232 393L232 320L302 320C410 320 467 281 467 200C467 120 405 74 300 74C198 74 130 118 125 210L36 210C40 71 132-6 295-6Z"  horiz-adv-x="597" vert-adv-y="1000"  />

      
      <glyph glyph-name="uni0418" unicode="&#x0418;" d="M149 0L524 555L524 0L611 0L611 700L530 700L155 145L155 700L68 700L68 0Z"  horiz-adv-x="679" vert-adv-y="1000"  />

      
      <glyph glyph-name="uni0419" unicode="&#x0419;" d="M339 759C436 759 487 812 489 896L421 896C421 847 397 817 340 817C283 817 261 847 261 896L193 896C195 812 243 759 339 759ZM149 0L524 555L524 0L611 0L611 700L530 700L155 145L155 700L68 700L68 0Z"  horiz-adv-x="679" vert-adv-y="1000"  />

      
      <glyph glyph-name="uni041A" unicode="&#x041A;" d="M155 0L155 316L284 316L525 0L631 0L358 361L615 700L514 700L284 396L155 396L155 700L68 700L68 0Z"  horiz-adv-x="646" vert-adv-y="1000"  />

      
      <glyph glyph-name="uni041B" unicode="&#x041B;" d="M36 0C163 0 221 80 221 349L221 620L536 620L536 0L623 0L623 700L137 700L137 356C137 128 103 80 26 80L9 80L9 0Z"  horiz-adv-x="691" vert-adv-y="1000"  />

      
      <glyph glyph-name="uni041C" unicode="&#x041C;" d="M68 0L153 0L153 552L385 0L462 0L694 552L694 0L779 0L779 700L671 700L426 119L178 700L68 700Z"  horiz-adv-x="847" vert-adv-y="1000"  />

      
      <glyph glyph-name="uni041D" unicode="&#x041D;" d="M68 0L155 0L155 316L517 316L517 0L604 0L604 700L517 700L517 396L155 396L155 700L68 700Z"  horiz-adv-x="672" vert-adv-y="1000"  />

      
      <glyph glyph-name="uni041E" unicode="&#x041E;" d="M710 350C710 556 573 706 376 706C179 706 42 556 42 350C42 144 179-6 376-6C573-6 710 144 710 350ZM131 350C131 511 230 626 376 626C522 626 621 511 621 350C621 189 522 74 376 74C230 74 131 189 131 350Z"  horiz-adv-x="752" vert-adv-y="1000"  />

      
      <glyph glyph-name="uni041F" unicode="&#x041F;" d="M155 0L155 620L512 620L512 0L599 0L599 700L68 700L68 0Z"  horiz-adv-x="667" vert-adv-y="1000"  />

      
      <glyph glyph-name="uni0420" unicode="&#x0420;" d="M68 0L155 0L155 269L337 269C477 269 569 354 569 485C569 616 477 700 337 700L68 700ZM330 620C422 620 480 568 480 485C480 402 421 349 329 349L155 349L155 620Z"  horiz-adv-x="594" vert-adv-y="1000"  />

      
      <glyph glyph-name="uni0421" unicode="&#x0421;" d="M369-6C527-6 643 84 669 229L577 229C551 131 476 74 368 74C221 74 131 189 131 350C131 512 225 626 372 626C477 626 551 568 578 471L670 471C644 616 531 706 376 706C173 706 42 562 42 350C42 136 168-6 369-6Z"  horiz-adv-x="706" vert-adv-y="1000"  />

      
      <glyph glyph-name="uni0422" unicode="&#x0422;" d="M20 620L247 620L247 0L334 0L334 620L561 620L561 700L20 700Z"  horiz-adv-x="581" vert-adv-y="1000"  />

      
      <glyph glyph-name="uni0423" unicode="&#x0423;" d="M176 0C247 0 292 27 336 123L604 700L510 700L325 287L109 700L9 700L279 194L257 146C231 89 210 80 153 80L90 80L90 0Z"  horiz-adv-x="613" vert-adv-y="1000"  />

      
      <glyph glyph-name="uni0424" unicode="&#x0424;" d="M832 350C832 535 695 648 479 655L479 740L395 740L395 655C178 648 42 534 42 350C42 165 179 52 395 45L395-40L479-40L479 45C696 54 832 166 832 350ZM129 350C129 488 224 572 395 578L395 122C223 129 129 213 129 350ZM479 578C651 571 745 487 745 350C745 213 650 129 479 122Z"  horiz-adv-x="874" vert-adv-y="1000"  />

      
      <glyph glyph-name="uni0425" unicode="&#x0425;" d="M15 0L116 0L304 293L494 0L597 0L361 365L582 700L482 700L307 429L132 700L30 700L251 359Z"  horiz-adv-x="612" vert-adv-y="1000"  />

      
      <glyph glyph-name="uni0427" unicode="&#x0427;" d="M469 386C422 353 362 334 290 334C193 334 128 381 128 489L128 700L41 700L41 472C41 323 142 254 281 254C356 254 421 271 469 300L469 0L556 0L556 700L469 700Z"  horiz-adv-x="624" vert-adv-y="1000"  />

      
      <glyph glyph-name="uni0426" unicode="&#x0426;" d="M599 700L512 700L512 80L155 80L155 700L68 700L68 0L598 0L598-143L685-143L685 80L599 80Z"  horiz-adv-x="706" vert-adv-y="1000"  />

      
      <glyph glyph-name="uni0428" unicode="&#x0428;" d="M919 0L919 700L832 700L832 80L537 80L537 700L450 700L450 80L155 80L155 700L68 700L68 0Z"  horiz-adv-x="987" vert-adv-y="1000"  />

      
      <glyph glyph-name="uni0429" unicode="&#x0429;" d="M919 700L832 700L832 80L537 80L537 700L450 700L450 80L155 80L155 700L68 700L68 0L918 0L918-143L1005-143L1005 80L919 80Z"  horiz-adv-x="1026" vert-adv-y="1000"  />

      
      <glyph glyph-name="uni042C" unicode="&#x042C;" d="M340 0C479 0 571 91 571 216C571 342 479 432 340 432L155 432L155 700L68 700L68 0ZM155 352L332 352C423 352 482 298 482 216C482 134 424 80 333 80L155 80Z"  horiz-adv-x="601" vert-adv-y="1000"  />

      
      <glyph glyph-name="uni042A" unicode="&#x042A;" d="M497 0C636 0 728 91 728 216C728 342 636 432 497 432L312 432L312 700L20 700L20 626L225 626L225 0ZM312 352L489 352C580 352 639 298 639 216C639 134 581 80 490 80L312 80Z"  horiz-adv-x="758" vert-adv-y="1000"  />

      
      <glyph glyph-name="uni042B" unicode="&#x042B;" d="M330 0C469 0 561 91 561 216C561 342 469 432 330 432L155 432L155 700L68 700L68 0ZM738 0L738 700L651 700L651 0ZM155 352L322 352C413 352 472 298 472 216C472 134 414 80 323 80L155 80Z"  horiz-adv-x="806" vert-adv-y="1000"  />

      
      <glyph glyph-name="uni042D" unicode="&#x042D;" d="M339 706C183 706 70 616 44 471L137 471C163 569 235 626 343 626C477 626 561 531 575 393L285 393L285 313L575 313C562 171 472 74 336 74C227 74 156 132 129 229L36 229C62 84 173-6 332-6C535-6 666 138 666 350C666 564 542 706 339 706Z"  horiz-adv-x="708" vert-adv-y="1000"  />

      
      <glyph glyph-name="uni042E" unicode="&#x042E;" d="M608 706C427 706 298 577 280 394L155 394L155 700L68 700L68 0L155 0L155 314L279 314C294 127 425-6 608-6C803-6 938 144 938 350C938 556 803 706 608 706ZM608 74C464 74 367 189 367 350C367 511 464 626 608 626C752 626 849 511 849 350C849 189 752 74 608 74Z"  horiz-adv-x="980" vert-adv-y="1000"  />

      
      <glyph glyph-name="uni042F" unicode="&#x042F;" d="M283 700C142 700 47 613 47 487C47 381 104 303 211 280L39 0L140 0L304 269L472 269L472 0L559 0L559 700ZM288 349C195 349 136 402 136 485C136 568 196 620 289 620L472 620L472 349Z"  horiz-adv-x="627" vert-adv-y="1000"  />

      
      <glyph glyph-name="uni0430" unicode="&#x0430;" d="M507 75C484 75 474 82 474 109L474 332C474 451 399 516 269 516C146 516 65 457 53 357L135 357C145 409 193 443 265 443C345 443 392 403 392 337L392 302L242 302C108 302 37 245 37 143C37 50 113-6 225-6C313-6 364 33 396 79C397 29 420 0 488 0L533 0L533 75ZM392 208C392 123 333 64 231 64C163 64 120 98 120 148C120 206 161 233 234 233L392 233Z"  horiz-adv-x="540" vert-adv-y="1000"  />

      
      <glyph glyph-name="uni0431" unicode="&#x0431;" d="M312 476C225 476 161 444 125 395C141 546 187 588 347 609L502 629L502 706L329 684C108 656 43 553 43 280C43 86 139-6 292-6C442-6 541 97 541 238C541 383 443 476 312 476ZM292 65C196 65 126 131 126 245C126 333 194 404 294 404C390 404 458 333 458 235C458 136 389 65 292 65Z"  horiz-adv-x="579" vert-adv-y="1000"  />

      
      <glyph glyph-name="uni0432" unicode="&#x0432;" d="M276 0C409 0 479 49 479 148C479 218 435 255 376 264C418 274 460 309 460 373C460 461 399 510 273 510L56 510L56 0ZM138 440L280 440C348 440 377 416 377 367C377 321 348 293 280 293L138 293ZM138 225L288 225C358 225 396 197 396 147C396 94 358 70 288 70L138 70Z"  horiz-adv-x="514" vert-adv-y="1000"  />

      
      <glyph glyph-name="uni0433" unicode="&#x0433;" d="M138 0L138 435L383 435L383 510L56 510L56 0Z"  horiz-adv-x="395" vert-adv-y="1000"  />

      
      <glyph glyph-name="uni0434" unicode="&#x0434;" d="M507 510L117 510L117 297C117 139 97 103 60 75L8 75L8-135L90-135L90 0L506 0L506-135L588-135L588 75L507 75ZM159 75C184 114 197 171 197 288L197 435L425 435L425 75Z"  horiz-adv-x="599" vert-adv-y="1000"  />

      
      <glyph glyph-name="uni0435" unicode="&#x0435;" d="M291-6C409-6 493 69 513 171L430 171C413 105 357 67 285 67C188 67 127 135 124 232L124 239L520 239C521 251 522 263 522 274C518 425 424 516 280 516C136 516 38 410 38 255C38 99 138-6 291-6ZM129 307C137 390 206 444 281 444C366 444 426 395 434 307Z"  horiz-adv-x="560" vert-adv-y="1000"  />

      
      <glyph glyph-name="uni0451" unicode="&#x0451;" d="M141 640C141 611 163 589 193 589C224 589 246 611 246 640C246 670 224 692 193 692C163 692 141 670 141 640ZM322 640C322 611 346 589 375 589C405 589 427 611 427 640C427 670 405 692 375 692C346 692 322 670 322 640ZM291-6C409-6 493 69 513 171L430 171C413 105 357 67 285 67C188 67 127 135 124 232L124 239L520 239C521 251 522 263 522 274C518 425 424 516 280 516C136 516 38 410 38 255C38 99 138-6 291-6ZM129 307C137 390 206 444 281 444C366 444 426 395 434 307Z"  horiz-adv-x="560" vert-adv-y="1000"  />

      
      <glyph glyph-name="uni0436" unicode="&#x0436;" d="M96 0L259 222L341 222L341 0L421 0L421 222L503 222L666 0L760 0L567 264L745 510L654 510L500 297L421 297L421 510L341 510L341 297L262 297L108 510L17 510L195 264L2 0Z"  horiz-adv-x="762" vert-adv-y="1000"  />

      
      <glyph glyph-name="uni0437" unicode="&#x0437;" d="M367 262C420 273 457 309 457 372C457 459 382 516 253 516C121 516 42 451 36 356L121 356C132 411 168 446 251 446C328 446 373 416 373 370C373 316 337 294 277 294L195 294L195 223L282 223C346 223 385 202 385 148C385 95 331 64 246 64C161 64 130 96 118 157L33 157C38 53 100-6 245-6C383-6 469 53 469 147C469 214 430 252 367 262Z"  horiz-adv-x="504" vert-adv-y="1000"  />

      
      <glyph glyph-name="uni0438" unicode="&#x0438;" d="M128 0L432 387L432 0L512 0L512 510L440 510L136 124L136 510L56 510L56 0Z"  horiz-adv-x="568" vert-adv-y="1000"  />

      
      <glyph glyph-name="uni0439" unicode="&#x0439;" d="M282 568C379 568 430 621 432 705L364 705C364 656 340 626 283 626C226 626 204 656 204 705L136 705C138 621 186 568 282 568ZM128 0L432 387L432 0L512 0L512 510L440 510L136 124L136 510L56 510L56 0Z"  horiz-adv-x="568" vert-adv-y="1000"  />

      
      <glyph glyph-name="uni043A" unicode="&#x043A;" d="M138 0L138 222L248 222L418 0L517 0L315 265L501 510L406 510L247 297L138 297L138 510L56 510L56 0Z"  horiz-adv-x="519" vert-adv-y="1000"  />

      
      <glyph glyph-name="uni043B" unicode="&#x043B;" d="M31 0C130 0 178 57 178 260L178 435L402 435L402 0L484 0L484 510L98 510L98 263C98 110 76 75 18 75L3 75L3 0Z"  horiz-adv-x="540" vert-adv-y="1000"  />

      
      <glyph glyph-name="uni043C" unicode="&#x043C;" d="M135 0L135 385L318 0L384 0L567 385L567 0L646 0L644 510L546 510L353 100L157 510L56 510L56 0Z"  horiz-adv-x="702" vert-adv-y="1000"  />

      
      <glyph glyph-name="uni043D" unicode="&#x043D;" d="M425 297L138 297L138 510L56 510L56 0L138 0L138 222L425 222L425 0L507 0L507 510L425 510Z"  horiz-adv-x="563" vert-adv-y="1000"  />

      
      <glyph glyph-name="uni043E" unicode="&#x043E;" d="M291-6C440-6 544 100 544 255C544 410 440 516 291 516C142 516 38 410 38 255C38 100 142-6 291-6ZM291 67C190 67 122 146 122 255C122 364 190 443 291 443C392 443 460 364 460 255C460 146 392 67 291 67Z"  horiz-adv-x="582" vert-adv-y="1000"  />

      
      <glyph glyph-name="uni043F" unicode="&#x043F;" d="M138 0L138 435L415 435L415 0L497 0L497 510L56 510L56 0Z"  horiz-adv-x="553" vert-adv-y="1000"  />

      
      <glyph glyph-name="uni0440" unicode="&#x0440;" d="M313 516C227 516 172 475 138 428L127 510L56 510L56-200L138-200L138 78C169 29 227-6 313-6C454-6 558 99 558 255C558 421 454 516 313 516ZM305 67C205 67 137 145 137 257C137 366 205 443 305 443C406 443 474 366 474 255C474 144 406 67 305 67Z"  horiz-adv-x="596" vert-adv-y="1000"  />

      
      <glyph glyph-name="uni0441" unicode="&#x0441;" d="M285-6C409-6 492 64 512 174L425 174C409 109 359 67 286 67C188 67 122 143 122 254C122 365 188 443 286 443C361 443 411 402 426 334L512 334C491 446 412 516 287 516C139 516 38 410 38 254C38 95 136-6 285-6Z"  horiz-adv-x="546" vert-adv-y="1000"  />

      
      <glyph glyph-name="uni0442" unicode="&#x0442;" d="M278 0L278 435L462 435L462 510L12 510L12 435L196 435L196 0Z"  horiz-adv-x="474" vert-adv-y="1000"  />

      
      <glyph glyph-name="uni0443" unicode="&#x0443;" d="M204-3L179-65C160-113 152-125 105-125L32-125L32-200L130-200C202-200 221-168 253-86L488 510L401 510L249 103L92 510L5 510Z"  horiz-adv-x="493" vert-adv-y="1000"  />

      
      <glyph glyph-name="uni0444" unicode="&#x0444;" d="M408-200L408-4C582 0 697 102 697 255C697 410 582 509 408 514L408 684L328 684L328 514C154 509 38 408 38 255C38 100 153 0 328-4L328-200ZM328 68C203 71 122 140 122 255C122 370 203 439 328 442ZM407 442C533 439 613 370 613 255C613 140 533 71 407 68Z"  horiz-adv-x="735" vert-adv-y="1000"  />

      
      <glyph glyph-name="uni0445" unicode="&#x0445;" d="M2 0L95 0L244 205L393 0L491 0L296 262L478 510L385 510L248 321L113 510L15 510L196 262Z"  horiz-adv-x="493" vert-adv-y="1000"  />

      
      <glyph glyph-name="uni0447" unicode="&#x0447;" d="M376 281C342 252 299 240 250 240C161 240 116 272 116 365L116 510L34 510L34 351C34 220 110 166 234 166C284 166 337 179 376 205L376 0L458 0L458 510L376 510Z"  horiz-adv-x="514" vert-adv-y="1000"  />

      
      <glyph glyph-name="uni0446" unicode="&#x0446;" d="M488 510L406 510L406 75L138 75L138 510L56 510L56 0L491 0L491-135L573-135L573 75L488 75Z"  horiz-adv-x="584" vert-adv-y="1000"  />

      
      <glyph glyph-name="uni0448" unicode="&#x0448;" d="M746 0L746 510L664 510L664 75L442 75L442 510L360 510L360 75L138 75L138 510L56 510L56 0Z"  horiz-adv-x="802" vert-adv-y="1000"  />

      
      <glyph glyph-name="uni0449" unicode="&#x0449;" d="M746 510L664 510L664 75L442 75L442 510L360 510L360 75L138 75L138 510L56 510L56 0L749 0L749-135L831-135L831 75L746 75Z"  horiz-adv-x="842" vert-adv-y="1000"  />

      
      <glyph glyph-name="uni044C" unicode="&#x044C;" d="M275 0C402 0 475 64 475 172C475 281 402 344 275 344L138 344L138 510L56 510L56 0ZM138 274L262 274C346 274 392 239 392 172C392 107 346 70 262 70L138 70Z"  horiz-adv-x="508" vert-adv-y="1000"  />

      
      <glyph glyph-name="uni044A" unicode="&#x044A;" d="M249 344L249 510L12 510L12 435L167 435L167 0L386 0C513 0 586 64 586 172C586 281 513 344 386 344ZM249 70L249 274L373 274C457 274 503 239 503 172C503 107 457 70 373 70Z"  horiz-adv-x="619" vert-adv-y="1000"  />

      
      <glyph glyph-name="uni044B" unicode="&#x044B;" d="M268 0C395 0 468 64 468 172C468 281 395 344 268 344L138 344L138 510L56 510L56 0ZM633 0L633 510L551 510L551 0ZM138 274L255 274C339 274 385 239 385 172C385 107 339 70 255 70L138 70Z"  horiz-adv-x="689" vert-adv-y="1000"  />

      
      <glyph glyph-name="uni044D" unicode="&#x044D;" d="M261 516C141 516 54 446 34 336L121 336C137 401 191 444 260 444C347 444 408 384 421 293L202 293L202 221L422 221C410 127 348 66 260 66C185 66 135 108 120 176L34 176C55 64 134-6 259-6C407-6 508 97 508 256C508 415 410 516 261 516Z"  horiz-adv-x="546" vert-adv-y="1000"  />

      
      <glyph glyph-name="uni044E" unicode="&#x044E;" d="M508 515C371 515 274 426 260 291L138 291L138 510L56 510L56 0L138 0L138 224L259 224C272 86 369-6 508-6C659-6 759 100 759 256C759 411 659 515 508 515ZM508 60C408 60 341 141 341 256C341 371 408 449 508 449C609 449 676 371 676 256C676 141 609 60 508 60Z"  horiz-adv-x="797" vert-adv-y="1000"  />

      
      <glyph glyph-name="uni044F" unicode="&#x044F;" d="M235 510C106 510 33 447 33 342C33 260 78 204 160 186L20 0L116 0L241 175L377 175L377 0L459 0L459 510ZM237 246C160 246 116 278 116 344C116 407 160 440 237 440L377 440L377 246Z"  horiz-adv-x="515" vert-adv-y="1000"  />

      
      <glyph glyph-name="uni0391" unicode="&#x0391;" d="M101 0L175 189L480 189L554 0L647 0L381 700L278 700L11 0ZM327 605L454 268L201 268Z"  horiz-adv-x="658" vert-adv-y="1000"  />

      
      <glyph glyph-name="uni0392" unicode="&#x0392;" d="M68 0L323 0C489 0 577 76 577 200C577 301 512 349 438 363C504 386 548 435 548 515C548 628 465 700 316 700L68 700ZM320 621C411 621 461 579 461 509C461 438 410 396 320 396L155 396L155 621ZM323 318C427 318 488 275 488 196C488 124 431 79 323 79L155 79L155 318Z"  horiz-adv-x="618" vert-adv-y="1000"  />

      
      <glyph glyph-name="uni0393" unicode="&#x0393;" d="M155 0L155 620L490 620L490 700L68 700L68 0Z"  horiz-adv-x="510" vert-adv-y="1000"  />

      
      <glyph glyph-name="uni0394" unicode="&#x0394;" d="M654 0L654 63L391 700L288 700L25 63L25 0ZM336 612L553 80L124 80Z"  horiz-adv-x="679" vert-adv-y="1000"  />

      
      <glyph glyph-name="uni0395" unicode="&#x0395;" d="M68 0L527 0L527 80L155 80L155 316L454 316L454 396L155 396L155 620L514 620L514 700L68 700Z"  horiz-adv-x="557" vert-adv-y="1000"  />

      
      <glyph glyph-name="uni0396" unicode="&#x0396;" d="M38 620L443 620L25 63L25 0L573 0L573 80L142 80L560 637L560 700L38 700Z"  horiz-adv-x="598" vert-adv-y="1000"  />

      
      <glyph glyph-name="uni0397" unicode="&#x0397;" d="M68 0L155 0L155 316L517 316L517 0L604 0L604 700L517 700L517 396L155 396L155 700L68 700Z"  horiz-adv-x="672" vert-adv-y="1000"  />

      
      <glyph glyph-name="uni0398" unicode="&#x0398;" d="M376-6C573-6 710 144 710 350C710 556 573 706 376 706C179 706 42 556 42 350C42 144 179-6 376-6ZM376 74C230 74 131 189 131 350C131 511 230 626 376 626C522 626 621 511 621 350C621 189 522 74 376 74ZM531 312L531 392L221 392L221 312Z"  horiz-adv-x="752" vert-adv-y="1000"  />

      
      <glyph glyph-name="uni0399" unicode="&#x0399;" d="M68 0L155 0L155 700L68 700Z"  horiz-adv-x="223" vert-adv-y="1000"  />

      
      <glyph glyph-name="uni039A" unicode="&#x039A;" d="M68 0L155 0L155 182L294 339L530 0L634 0L358 405L614 700L508 700L155 303L155 700L68 700Z"  horiz-adv-x="638" vert-adv-y="1000"  />

      
      <glyph glyph-name="uni039B" unicode="&#x039B;" d="M101 0L318 597L538 0L630 0L372 700L267 700L11 0Z"  horiz-adv-x="641" vert-adv-y="1000"  />

      
      <glyph glyph-name="uni039C" unicode="&#x039C;" d="M68 0L153 0L153 552L385 0L462 0L694 552L694 0L779 0L779 700L671 700L426 119L178 700L68 700Z"  horiz-adv-x="847" vert-adv-y="1000"  />

      
      <glyph glyph-name="uni039D" unicode="&#x039D;" d="M153 0L153 540L529 0L609 0L609 700L524 700L524 160L148 700L68 700L68 0Z"  horiz-adv-x="677" vert-adv-y="1000"  />

      
      <glyph glyph-name="uni039E" unicode="&#x039E;" d="M552 620L552 700L42 700L42 620ZM517 316L517 396L76 396L76 316ZM558 0L558 80L35 80L35 0Z"  horiz-adv-x="593" vert-adv-y="1000"  />

      
      <glyph glyph-name="uni039F" unicode="&#x039F;" d="M710 350C710 556 573 706 376 706C179 706 42 556 42 350C42 144 179-6 376-6C573-6 710 144 710 350ZM131 350C131 511 230 626 376 626C522 626 621 511 621 350C621 189 522 74 376 74C230 74 131 189 131 350Z"  horiz-adv-x="752" vert-adv-y="1000"  />

      
      <glyph glyph-name="uni03A0" unicode="&#x03A0;" d="M155 0L155 620L515 620L515 0L602 0L602 700L68 700L68 0Z"  horiz-adv-x="670" vert-adv-y="1000"  />

      
      <glyph glyph-name="uni03A1" unicode="&#x03A1;" d="M68 0L155 0L155 269L337 269C477 269 569 354 569 485C569 616 477 700 337 700L68 700ZM330 620C422 620 480 568 480 485C480 402 421 349 329 349L155 349L155 620Z"  horiz-adv-x="594" vert-adv-y="1000"  />

      
      <glyph glyph-name="uni03A3" unicode="&#x03A3;" d="M568 0L568 80L158 80L402 345L402 376L181 620L560 620L560 700L48 700L48 637L304 358L31 63L31 0Z"  horiz-adv-x="595" vert-adv-y="1000"  />

      
      <glyph glyph-name="uni03A4" unicode="&#x03A4;" d="M20 620L247 620L247 0L334 0L334 620L561 620L561 700L20 700Z"  horiz-adv-x="581" vert-adv-y="1000"  />

      
      <glyph glyph-name="uni03A5" unicode="&#x03A5;" d="M273 259L273 0L360 0L360 259L624 700L526 700L317 353L111 700L9 700Z"  horiz-adv-x="633" vert-adv-y="1000"  />

      
      <glyph glyph-name="uni03A6" unicode="&#x03A6;" d="M803 350C803 544 673 662 466 673L466 729L381 729L381 673C172 663 42 544 42 350C42 155 173 36 381 27L381-29L466-29L466 27C674 39 803 157 803 350ZM128 350C128 499 218 588 381 596L381 104C218 113 128 202 128 350ZM466 596C628 585 717 497 717 350C717 203 627 114 466 104Z"  horiz-adv-x="845" vert-adv-y="1000"  />

      
      <glyph glyph-name="uni03A7" unicode="&#x03A7;" d="M15 0L116 0L304 293L494 0L597 0L361 365L582 700L482 700L307 429L132 700L30 700L251 359Z"  horiz-adv-x="612" vert-adv-y="1000"  />

      
      <glyph glyph-name="uni03A8" unicode="&#x03A8;" d="M647 531C647 367 586 299 437 289L437 700L352 700L352 289C203 299 142 367 142 531L142 700L57 700L57 526C57 319 156 221 352 209L352 0L437 0L437 209C633 221 732 318 732 526L732 700L647 700Z"  horiz-adv-x="789" vert-adv-y="1000"  />

      
      <glyph glyph-name="uni03A9" unicode="&#x03A9;" d="M296 0L296 140C175 193 135 267 135 387C135 530 233 626 367 626C502 626 600 530 600 387C600 267 559 193 438 141L438 0L689 0L689 80L512 80L512 102C638 155 689 255 689 387C689 573 554 706 368 706C181 706 46 573 46 387C46 256 94 157 224 102L224 80L45 80L45 0Z"  horiz-adv-x="735" vert-adv-y="1000"  />

      
      <glyph glyph-name="uni0386" unicode="&#x0386;" d="M101 0L175 189L480 189L554 0L647 0L381 700L278 700L11 0ZM115 557L185 700L96 700L58 557ZM327 605L454 268L201 268Z"  horiz-adv-x="658" vert-adv-y="1000"  />

      
      <glyph glyph-name="uni0388" unicode="&#x0388;" d="M30 557L100 700L11 700L-27 557ZM138 0L597 0L597 80L225 80L225 316L524 316L524 396L225 396L225 620L584 620L584 700L138 700Z"  horiz-adv-x="627" vert-adv-y="1000"  />

      
      <glyph glyph-name="uni0389" unicode="&#x0389;" d="M30 557L100 700L11 700L-27 557ZM138 0L225 0L225 316L587 316L587 0L674 0L674 700L587 700L587 396L225 396L225 700L138 700Z"  horiz-adv-x="742" vert-adv-y="1000"  />

      
      <glyph glyph-name="uni038A" unicode="&#x038A;" d="M30 557L100 700L11 700L-27 557ZM138 0L225 0L225 700L138 700Z"  horiz-adv-x="293" vert-adv-y="1000"  />

      
      <glyph glyph-name="uni038C" unicode="&#x038C;" d="M720 350C720 556 583 706 386 706C189 706 52 556 52 350C52 144 189-6 386-6C583-6 720 144 720 350ZM41 557L111 700L22 700L-16 557ZM141 350C141 511 240 626 386 626C532 626 631 511 631 350C631 189 532 74 386 74C240 74 141 189 141 350Z"  horiz-adv-x="762" vert-adv-y="1000"  />

      
      <glyph glyph-name="uni038E" unicode="&#x038E;" d="M11 557L81 700L-8 700L-46 557ZM353 259L353 0L440 0L440 259L704 700L606 700L397 353L191 700L89 700Z"  horiz-adv-x="713" vert-adv-y="1000"  />

      
      <glyph glyph-name="uni038F" unicode="&#x038F;" d="M326 0L326 140C205 193 165 267 165 387C165 530 263 626 397 626C532 626 630 530 630 387C630 267 589 193 468 141L468 0L719 0L719 80L542 80L542 102C668 155 719 255 719 387C719 573 584 706 398 706C211 706 76 573 76 387C76 256 124 157 254 102L254 80L75 80L75 0ZM47 557L117 700L28 700L-10 557Z"  horiz-adv-x="765" vert-adv-y="1000"  />

      
      <glyph glyph-name="uni03AA" unicode="&#x03AA;" d="M-32 831C-32 802-10 780 20 780C51 780 73 802 73 831C73 861 51 883 20 883C-10 883-32 861-32 831ZM149 831C149 802 173 780 202 780C232 780 254 802 254 831C254 861 232 883 202 883C173 883 149 861 149 831ZM68 0L155 0L155 700L68 700Z"  horiz-adv-x="223" vert-adv-y="1000"  />

      
      <glyph glyph-name="uni03AB" unicode="&#x03AB;" d="M174 831C174 802 196 780 226 780C257 780 279 802 279 831C279 861 257 883 226 883C196 883 174 861 174 831ZM355 831C355 802 379 780 408 780C438 780 460 802 460 831C460 861 438 883 408 883C379 883 355 861 355 831ZM273 259L273 0L360 0L360 259L624 700L526 700L317 353L111 700L9 700Z"  horiz-adv-x="633" vert-adv-y="1000"  />

      
      <glyph glyph-name="uni03B1" unicode="&#x03B1;" d="M575 75C550 75 540 82 540 111L540 510L469 510L458 430C425 480 369 516 283 516C142 516 38 411 38 255C38 89 142-6 283-6C372-6 429 38 462 88C460 32 483 0 554 0L599 0L599 75ZM291 67C190 67 122 144 122 255C122 366 190 443 291 443C391 443 459 365 459 253C459 144 391 67 291 67Z"  horiz-adv-x="610" vert-adv-y="1000"  />

      
      <glyph glyph-name="uni03B2" unicode="&#x03B2;" d="M395 369C450 388 491 441 492 518C493 630 406 706 282 706C150 706 56 628 56 479L56-200L138-200L138 58C177 17 235-6 311-6C432-6 536 74 536 193C536 297 480 353 395 369ZM307 67C210 67 138 119 138 224L138 489C138 577 189 633 280 633C360 633 409 589 409 517C409 454 378 395 271 395L239 395L239 322L293 322C395 322 452 288 452 196C452 114 391 67 307 67Z"  horiz-adv-x="568" vert-adv-y="1000"  />

      
      <glyph glyph-name="uni03B3" unicode="&#x03B3;" d="M420 510L257 116L93 510L5 510L215 6L215-162L297-162L297 9L506 510Z"  horiz-adv-x="511" vert-adv-y="1000"  />

      
      <glyph glyph-name="uni03B4" unicode="&#x03B4;" d="M284-6C440-6 537 96 537 234C537 337 485 398 402 470L223 627L509 627L509 700L95 700L95 635L294 466C277 467 261 466 245 464C123 450 38 358 38 230C38 84 137-6 284-6ZM287 64C189 64 121 127 121 233C121 337 191 400 290 400C382 400 454 340 454 233C454 127 385 64 287 64Z"  horiz-adv-x="575" vert-adv-y="1000"  />

      
      <glyph glyph-name="uni03B5" unicode="&#x03B5;" d="M401 155C394 88 350 64 255 64C169 64 116 85 116 146C116 201 162 221 238 221L320 221L320 294L243 294C174 294 131 315 131 368C131 419 184 445 261 445C349 445 391 415 397 356L481 356C475 455 395 515 261 515C132 515 48 455 48 366C48 305 82 271 134 261C69 250 32 206 32 137C32 44 117-6 249-6C405-6 480 53 485 155Z"  horiz-adv-x="511" vert-adv-y="1000"  />

      
      <glyph glyph-name="uni03B6" unicode="&#x03B6;" d="M467-136L467-45C467 40 424 72 335 73L270 74C177 75 118 105 118 190C118 278 190 353 293 462L458 638L458 700L54 700L54 625L346 625L192 459C99 359 34 280 34 184C34 54 122 2 258 0L323-1C374-2 389-17 389-67L389-136Z"  horiz-adv-x="473" vert-adv-y="1000"  />

      
      <glyph glyph-name="uni03B7" unicode="&#x03B7;" d="M324 516C233 516 181 475 151 434C148 482 126 510 60 510L15 510L15 435L39 435C64 435 74 428 74 399L74 0L156 0L156 255C156 370 214 441 310 441C399 441 448 385 448 279L448-200L530-200L530 284C530 453 439 516 324 516Z"  horiz-adv-x="579" vert-adv-y="1000"  />

      
      <glyph glyph-name="uni03B8" unicode="&#x03B8;" d="M288 706C135 706 38 584 38 351C38 118 135-6 288-6C441-6 538 118 538 351C538 586 441 706 288 706ZM288 633C385 633 447 558 455 392L120 392C129 557 191 633 288 633ZM288 67C189 67 126 147 120 320L455 320C449 147 387 67 288 67Z"  horiz-adv-x="576" vert-adv-y="1000"  />

      
      <glyph glyph-name="uni03B9" unicode="&#x03B9;" d="M245 0L245 75L194 75C150 75 135 91 135 134L135 510L53 510L53 133C53 43 88 0 186 0Z"  horiz-adv-x="254" vert-adv-y="1000"  />

      
      <glyph glyph-name="uni03BA" unicode="&#x03BA;" d="M293 292L368 386C403 430 419 435 463 435L489 435L489 510L451 510C381 510 354 491 300 423L138 218L138 509L56 509L56 0L138 0L138 108L239 232L408 0L509 0Z"  horiz-adv-x="519" vert-adv-y="1000"  />

      
      <glyph glyph-name="uni03BB" unicode="&#x03BB;" d="M101 0L262 396L421 0L509 0L271 583C232 679 210 700 134 700L53 700L53 625L113 625C156 625 172 619 192 567L221 493L15 0Z"  horiz-adv-x="524" vert-adv-y="1000"  />

      
      <glyph glyph-name="uni03BC" unicode="&#x03BC;" d="M536 75C511 75 501 82 501 111L502 510L420 510L420 263C420 144 361 69 273 69C187 69 138 129 138 239L138 510L56 510L56-200L139-200L139 49C154 21 208-6 265-6C338-6 397 27 423 81C423 30 447 0 515 0L560 0L560 75Z"  horiz-adv-x="571" vert-adv-y="1000"  />

      
      <glyph glyph-name="uni03BD" unicode="&#x03BD;" d="M196 0L295 0L486 510L400 510L247 93L93 510L5 510Z"  horiz-adv-x="491" vert-adv-y="1000"  />

      
      <glyph glyph-name="uni03BE" unicode="&#x03BE;" d="M466-135L466-44C466 41 423 72 334 74L279 75C180 77 117 107 117 193C117 278 175 322 290 322L402 322L402 397L299 397C193 397 152 439 152 507C152 589 222 627 365 633C392 634 422 635 450 635L450 700L40 700L40 634L173 635C114 615 68 573 68 496C68 426 105 381 164 364C90 345 33 281 33 187C33 56 125 4 267 1L322 0C373-1 388-16 388-66L388-135Z"  horiz-adv-x="478" vert-adv-y="1000"  />

      
      <glyph glyph-name="uni03BF" unicode="&#x03BF;" d="M291-6C440-6 544 100 544 255C544 410 440 516 291 516C142 516 38 410 38 255C38 100 142-6 291-6ZM291 67C190 67 122 146 122 255C122 364 190 443 291 443C392 443 460 364 460 255C460 146 392 67 291 67Z"  horiz-adv-x="582" vert-adv-y="1000"  />

      
      <glyph glyph-name="uni03C0" unicode="&#x03C0;" d="M594 510L13 510L13 435L101 435L101 0L183 0L183 435L420 435L420 91C420 29 449 0 506 0L564 0L564 75L537 75C512 75 502 81 502 110L502 435L594 435Z"  horiz-adv-x="612" vert-adv-y="1000"  />

      
      <glyph glyph-name="uni03C1" unicode="&#x03C1;" d="M300 516C151 516 49 409 49 253L49-200L131-200L131 64C161 26 228-6 300-6C449-6 553 100 553 255C553 410 449 516 300 516ZM300 67C199 67 131 146 131 253C131 364 199 443 300 443C401 443 469 364 469 255C469 146 401 67 300 67Z"  horiz-adv-x="591" vert-adv-y="1000"  />

      
      <glyph glyph-name="uni03C2" unicode="&#x03C2;" d="M462-135L462-45C462 40 419 71 330 73L293 74C187 77 122 126 122 254C122 365 188 443 286 443C361 443 411 402 426 334L512 334C491 446 412 516 287 516C139 516 38 410 38 254C38 90 110 5 281 0L318-1C369-2 384-17 384-67L384-135Z"  horiz-adv-x="532" vert-adv-y="1000"  />

      
      <glyph glyph-name="uni03C3" unicode="&#x03C3;" d="M291-6C440-6 544 97 544 252C544 327 518 393 466 435L593 435L593 510L290 510C142 510 38 408 38 252C38 97 142-6 291-6ZM291 67C190 67 122 143 122 252C122 361 190 437 291 437C392 437 460 361 460 252C460 143 392 67 291 67Z"  horiz-adv-x="611" vert-adv-y="1000"  />

      
      <glyph glyph-name="uni03C4" unicode="&#x03C4;" d="M473 510L13 510L13 435L195 435L195 133C195 43 230 0 328 0L422 0L422 75L336 75C292 75 277 91 277 134L277 435L473 435Z"  horiz-adv-x="491" vert-adv-y="1000"  />

      
      <glyph glyph-name="uni03C5" unicode="&#x03C5;" d="M272-6C403-6 495 61 495 219L495 510L413 510L413 227C413 122 371 69 272 69C172 69 131 122 131 227L131 510L49 510L49 219C49 61 140-6 272-6Z"  horiz-adv-x="544" vert-adv-y="1000"  />

      
      <glyph glyph-name="uni03C6" unicode="&#x03C6;" d="M410-200L410-5C580-4 697 95 697 258C697 418 580 513 410 515L410 641L330 641L330 515C159 513 43 418 43 257C43 94 159-3 330-5L330-200ZM330 64C206 66 124 135 124 257C124 377 206 444 330 445ZM410 445C534 444 615 377 615 258C615 135 534 66 410 64Z"  horiz-adv-x="740" vert-adv-y="1000"  />

      
      <glyph glyph-name="uni03C7" unicode="&#x03C7;" d="M91-200L268 101L369-94C414-181 425-200 505-200L550-200L550-125L529-125C483-125 470-117 443-66L319 165L525 510L438 510L273 232L184 404C138 493 125 510 45 510L3 510L3 435L24 435C69 435 83 426 110 375L220 166L0-200Z"  horiz-adv-x="550" vert-adv-y="1000"  />

      
      <glyph glyph-name="uni03C8" unicode="&#x03C8;" d="M557 259C557 134 504 78 384 68L384 641L304 641L304 69C183 79 131 136 131 260L131 510L49 510L49 255C49 79 154 6 304-5L304-200L384-200L384-5C533 5 639 78 639 255L639 510L557 510Z"  horiz-adv-x="688" vert-adv-y="1000"  />

      
      <glyph glyph-name="uni03C9" unicode="&#x03C9;" d="M240-6C318-6 364 31 386 89C409 31 451-6 535-6C649-6 732 70 732 235C732 369 661 471 616 510L523 510C579 453 648 362 648 234C648 124 607 67 530 67C459 67 428 122 428 222L428 330L348 330L348 222C348 122 311 67 244 67C167 67 127 124 127 234C127 362 196 453 252 510L159 510C114 471 43 369 43 235C43 70 126-6 240-6Z"  horiz-adv-x="775" vert-adv-y="1000"  />

      
      <glyph glyph-name="uni03AF" unicode="&#x03AF;" d="M124 571L194 714L105 714L67 571ZM245 0L245 75L194 75C150 75 135 91 135 134L135 510L53 510L53 133C53 43 88 0 186 0Z"  horiz-adv-x="254" vert-adv-y="1000"  />

      
      <glyph glyph-name="uni03CA" unicode="&#x03CA;" d="M-48 641C-48 612-26 590 4 590C35 590 57 612 57 641C57 671 35 693 4 693C-26 693-48 671-48 641ZM133 641C133 612 157 590 186 590C216 590 238 612 238 641C238 671 216 693 186 693C157 693 133 671 133 641ZM245 0L245 75L194 75C150 75 135 91 135 134L135 510L53 510L53 133C53 43 88 0 186 0Z"  horiz-adv-x="254" vert-adv-y="1000"  />

      
      <glyph glyph-name="uni0390" unicode="&#x0390;" d="M121 573L151 725L70 725L67 573ZM-63 641C-63 613-42 592-14 592C16 592 37 613 37 641C37 670 16 691-14 691C-42 691-63 670-63 641ZM163 641C163 613 186 592 214 592C242 592 263 613 263 641C263 670 242 691 214 691C186 691 163 670 163 641ZM245 0L245 75L194 75C150 75 135 91 135 134L135 510L53 510L53 133C53 43 88 0 186 0Z"  horiz-adv-x="254" vert-adv-y="1000"  />

      
      <glyph glyph-name="uni03CD" unicode="&#x03CD;" d="M301 570L371 713L282 713L244 570ZM272-6C403-6 495 61 495 219L495 510L413 510L413 227C413 122 371 69 272 69C172 69 131 122 131 227L131 510L49 510L49 219C49 61 140-6 272-6Z"  horiz-adv-x="544" vert-adv-y="1000"  />

      
      <glyph glyph-name="uni03CB" unicode="&#x03CB;" d="M129 640C129 611 151 589 181 589C212 589 234 611 234 640C234 670 212 692 181 692C151 692 129 670 129 640ZM310 640C310 611 334 589 363 589C393 589 415 611 415 640C415 670 393 692 363 692C334 692 310 670 310 640ZM272-6C403-6 495 61 495 219L495 510L413 510L413 227C413 122 371 69 272 69C172 69 131 122 131 227L131 510L49 510L49 219C49 61 140-6 272-6Z"  horiz-adv-x="544" vert-adv-y="1000"  />

      
      <glyph glyph-name="uni03B0" unicode="&#x03B0;" d="M293 572L323 724L242 724L239 572ZM109 640C109 612 130 591 158 591C188 591 209 612 209 640C209 669 188 690 158 690C130 690 109 669 109 640ZM335 640C335 612 358 591 386 591C414 591 435 612 435 640C435 669 414 690 386 690C358 690 335 669 335 640ZM272-6C403-6 495 61 495 219L495 510L413 510L413 227C413 122 371 69 272 69C172 69 131 122 131 227L131 510L49 510L49 219C49 61 140-6 272-6Z"  horiz-adv-x="544" vert-adv-y="1000"  />

      
      <glyph glyph-name="uni03CC" unicode="&#x03CC;" d="M320 570L390 713L301 713L263 570ZM291-6C440-6 544 100 544 255C544 410 440 516 291 516C142 516 38 410 38 255C38 100 142-6 291-6ZM291 67C190 67 122 146 122 255C122 364 190 443 291 443C392 443 460 364 460 255C460 146 392 67 291 67Z"  horiz-adv-x="582" vert-adv-y="1000"  />

      
      <glyph glyph-name="uni03CE" unicode="&#x03CE;" d="M416 570L486 713L397 713L359 570ZM240-6C318-6 364 31 386 89C409 31 451-6 535-6C649-6 732 70 732 235C732 369 661 471 616 510L523 510C579 453 648 362 648 234C648 124 607 67 530 67C459 67 428 122 428 222L428 330L348 330L348 222C348 122 311 67 244 67C167 67 127 124 127 234C127 362 196 453 252 510L159 510C114 471 43 369 43 235C43 70 126-6 240-6Z"  horiz-adv-x="775" vert-adv-y="1000"  />

      
      <glyph glyph-name="uni03AC" unicode="&#x03AC;" d="M299 714L261 571L318 571L388 714ZM575 75C550 75 540 82 540 111L540 510L469 510L458 430C425 480 369 516 283 516C142 516 38 411 38 255C38 89 142-6 283-6C372-6 429 38 462 88C460 32 483 0 554 0L599 0L599 75ZM291 67C190 67 122 144 122 255C122 366 190 443 291 443C391 443 459 365 459 253C459 144 391 67 291 67Z"  horiz-adv-x="610" vert-adv-y="1000"  />

      
      <glyph glyph-name="uni03AD" unicode="&#x03AD;" d="M268 713L230 570L287 570L357 713ZM401 155C394 88 350 64 255 64C169 64 116 85 116 146C116 201 162 221 238 221L320 221L320 294L243 294C174 294 131 315 131 368C131 419 184 445 261 445C349 445 391 415 397 356L481 356C475 455 395 515 261 515C132 515 48 455 48 366C48 305 82 271 134 261C69 250 32 206 32 137C32 44 117-6 249-6C405-6 480 53 485 155Z"  horiz-adv-x="511" vert-adv-y="1000"  />

      
      <glyph glyph-name="uni03AE" unicode="&#x03AE;" d="M257 714L219 571L276 571L346 714ZM324 516C233 516 181 475 151 434C148 482 126 510 60 510L15 510L15 435L39 435C64 435 74 428 74 399L74 0L156 0L156 255C156 370 214 441 310 441C399 441 448 385 448 279L448-200L530-200L530 284C530 453 439 516 324 516Z"  horiz-adv-x="579" vert-adv-y="1000"  />

      
      <glyph glyph-name="uni30" unicode="&#x30;" d="M43 334C43 125 151-6 309-6C466-6 574 125 574 334L574 366C574 565 466 706 309 706C151 706 43 565 43 366ZM489 337C489 171 417 71 309 71C200 71 128 171 128 337L128 363C128 529 200 629 309 629C417 629 489 529 489 363Z"  horiz-adv-x="617" vert-adv-y="1000"  />

      
      <glyph glyph-name="uni31" unicode="&#x31;" d="M167 624C167 589 151 564 118 564L4 564L4 489L117 489C139 489 155 493 165 502L165 0L249 0L249 700L167 700Z"  horiz-adv-x="318" vert-adv-y="1000"  />

      
      <glyph glyph-name="uni32" unicode="&#x32;" d="M22 0L504 0L504 77L138 77L348 255C431 326 499 392 499 497C499 623 411 706 260 706C119 706 26 612 26 480L26 462L110 462L110 475C110 571 170 631 260 631C353 631 413 581 413 493C413 417 359 363 294 307L22 71Z"  horiz-adv-x="535" vert-adv-y="1000"  />

      
      <glyph glyph-name="uni33" unicode="&#x33;" d="M399 364C466 382 512 433 512 521C512 631 421 706 277 706C139 706 43 621 42 498L125 498C126 578 190 631 278 631C362 631 426 587 426 516C426 445 374 393 270 393L215 393L215 320L275 320C384 320 444 273 444 200C444 120 374 69 283 69C184 69 112 124 111 216L28 216C28 77 126-6 278-6C430-6 530 75 530 194C530 301 463 352 399 364Z"  horiz-adv-x="570" vert-adv-y="1000"  />

      
      <glyph glyph-name="uni34" unicode="&#x34;" d="M13 171L380 171L380 0L464 0L464 171L577 171L577 248L464 248L464 700L370 700L13 246ZM380 597L380 248L107 248Z"  horiz-adv-x="587" vert-adv-y="1000"  />

      
      <glyph glyph-name="uni35" unicode="&#x35;" d="M305 469C240 469 180 453 137 402L153 623L495 623L495 700L76 700L53 302L134 300C164 383 250 395 293 395C390 395 451 328 451 233C451 125 374 70 292 70C191 70 130 137 122 218L39 218C46 96 136-5 292-5C423-5 537 79 537 234C537 373 442 469 305 469Z"  horiz-adv-x="568" vert-adv-y="1000"  />

      
      <glyph glyph-name="uni36" unicode="&#x36;" d="M98 110C142 38 213-6 310-6C454-6 553 94 553 229C553 372 456 463 318 463C224 463 154 417 123 348C119 339 118 333 117 329C116 346 116 353 116 363C116 521 183 632 305 632C390 632 440 584 456 513L540 513C523 630 436 706 309 706C142 706 43 567 43 347C43 255 63 171 98 110ZM469 229C469 135 406 68 309 68C213 68 149 133 149 227C149 323 215 389 312 389C409 389 469 322 469 229Z"  horiz-adv-x="592" vert-adv-y="1000"  />

      
      <glyph glyph-name="uni37" unicode="&#x37;" d="M7 623L409 623L66 0L157 0L501 641L501 700L7 700Z"  horiz-adv-x="512" vert-adv-y="1000"  />

      
      <glyph glyph-name="uni38" unicode="&#x38;" d="M410 362C478 377 530 440 530 520C530 630 438 706 295 706C152 706 60 630 60 520C60 436 113 377 180 362C101 344 40 283 40 188C40 75 137-6 295-6C453-6 550 75 550 188C550 284 488 344 410 362ZM146 520C146 588 205 634 295 634C385 634 444 588 444 520C444 451 385 405 295 405C205 405 146 451 146 520ZM295 66C196 66 126 119 126 194C126 268 195 321 295 321C395 321 464 268 464 194C464 119 395 66 295 66Z"  horiz-adv-x="590" vert-adv-y="1000"  />

      
      <glyph glyph-name="uni39" unicode="&#x39;" d="M283-6C450-6 549 133 549 353C549 445 529 529 494 590C450 662 379 706 282 706C138 706 39 606 39 471C39 328 136 237 274 237C368 237 438 283 469 352C473 361 474 367 475 371C476 354 476 347 476 337C476 179 409 68 287 68C202 68 152 116 136 187L52 187C69 70 156-6 283-6ZM280 311C183 311 123 378 123 471C123 565 186 632 283 632C379 632 443 567 443 473C443 377 377 311 280 311Z"  horiz-adv-x="592" vert-adv-y="1000"  />

      
      <glyph glyph-name="uni2e" unicode="&#x2e;" d="M46 50C46 16 70-6 103-6C136-6 160 16 160 50C160 84 136 106 103 106C70 106 46 84 46 50Z"  horiz-adv-x="206" vert-adv-y="1000"  />

      
      <glyph glyph-name="uni2c" unicode="&#x2c;" d="M93 105C51 105 27 80 27 47C27 11 50-7 80-7C92-7 106-3 114 5C115 1 115-3 115-8C115-42 95-87 31-88L31-135C119-133 172-82 172 3C172 58 142 105 93 105Z"  horiz-adv-x="206" vert-adv-y="1000"  />

      
      <glyph glyph-name="uni2d" unicode="&#x2d;" d="M385 250L385 319L52 319L52 250Z"  horiz-adv-x="437" vert-adv-y="1000"  />

      

  </font>
</defs>
</svg>
